<svg xmlns="http://www.w3.org/2000/svg" viewBox="0 0 97.314 97.314"><defs><style>.a{fill:#7526d1;fill-rule:evenodd;}.b{fill:#fff;}</style></defs><g transform="translate(0.001 -0.002)"><path class="a" d="M48.656,0A48.657,48.657,0,1,1,0,48.659,48.657,48.657,0,0,1,48.656,0Z" transform="translate(0 0)"/><path class="b" d="M64.792,14.4a24.22,24.22,0,0,1-6.812,1.816A11.6,11.6,0,0,0,63.2,9.844a24.043,24.043,0,0,1-7.533,2.795,12.011,12.011,0,0,0-8.655-3.631,11.683,11.683,0,0,0-11.854,11.5,11.15,11.15,0,0,0,.307,2.624A34.012,34.012,0,0,1,11.023,11.112,11.178,11.178,0,0,0,9.418,16.9a11.411,11.411,0,0,0,5.273,9.576,12.054,12.054,0,0,1-5.374-1.441v.146A11.608,11.608,0,0,0,18.83,36.463a12.261,12.261,0,0,1-3.123.4,11.966,11.966,0,0,1-2.229-.207,11.825,11.825,0,0,0,11.079,7.992A24.24,24.24,0,0,1,9.828,49.579,24.883,24.883,0,0,1,7,49.417,34.313,34.313,0,0,0,25.176,54.59c21.81,0,33.737-17.541,33.737-32.746l-.033-1.49A23.656,23.656,0,0,0,64.792,14.4Z" transform="translate(14.283 18.382)"/></g></svg>